HIERARCHY
ROOT hip
{
  OFFSET 0.00112043 5.09927 -9.65472
  CHANNELS 6 Xposition Yposition Zposition Zrotation Xrotation Yrotation
  JOINT abdomen
  {
    OFFSET 0 -1.186 -1.5018
    CHANNELS 3 Zrotation Xrotation Yrotation
    JOINT abdomen2
    {
      OFFSET 0 9.964 0.2134
      CHANNELS 3 Zrotation Xrotation Yrotation
      JOINT chest
      {
        OFFSET 0 13.134 -3.2573
        CHANNELS 3 Zrotation Xrotation Yrotation
        JOINT neck
        {
          OFFSET 0 20.686 -1.6905
          CHANNELS 3 Zrotation Xrotation Yrotation
          JOINT head
          {
            OFFSET 0 7.238 -0.1237
            CHANNELS 3 Zrotation Xrotation Yrotation
            End Site
            {
              OFFSET 0 0 0
            }
          }
        }
        JOINT lCollar
        {
          OFFSET 1.7069 20.075 5.0056
          CHANNELS 3 Zrotation Xrotation Yrotation
          JOINT lShldr
          {
            OFFSET 13.6458 -0.047 -4.849
            CHANNELS 3 Zrotation Xrotation Yrotation
            JOINT lForeArm
            {
              OFFSET 28.3255 -0.9759 2.2888
              CHANNELS 3 Zrotation Xrotation Yrotation
              JOINT lHand
              {
                OFFSET 22.1583 -0.53 10.8316
                CHANNELS 3 Zrotation Xrotation Yrotation
                JOINT lThumb1
                {
                  OFFSET 0.786 0.112 2.5817
                  CHANNELS 3 Zrotation Xrotation Yrotation
                  JOINT lThumb2
                  {
                    OFFSET 0.3601 -0.878 4.2331
                    CHANNELS 3 Zrotation Xrotation Yrotation
                    JOINT lThumb2_End
                    {
                      OFFSET 1.8127 -1.216 2.2227
                      CHANNELS 3 Zrotation Xrotation Yrotation
                      End Site
                      {
                        OFFSET 0.0181 -0.0122 0.0222
                      }
                    }
                  }
                }
                JOINT lCarpal1
                {
                  OFFSET 0.9571 1.114 1.7695
                  CHANNELS 3 Zrotation Xrotation Yrotation
                  JOINT lIndex1
                  {
                    OFFSET 4.1246 0.487 4.1451
                    CHANNELS 3 Zrotation Xrotation Yrotation
                    JOINT lIndex2
                    {
                      OFFSET 3.4052 -1.454 2.7682
                      CHANNELS 3 Zrotation Xrotation Yrotation
                      JOINT lIndex2_End
                      {
                        OFFSET 1.4531 -1.795 1.2713
                        CHANNELS 3 Zrotation Xrotation Yrotation
                        End Site
                        {
                          OFFSET 0.0145 -0.0179 0.0127
                        }
                      }
                    }
                  }
                  JOINT lMid1
                  {
                    OFFSET 5.6954 0.21 2.1184
                    CHANNELS 3 Zrotation Xrotation Yrotation
                    JOINT lMid2
                    {
                      OFFSET 3.9766 -1.54 2.3863
                      CHANNELS 3 Zrotation Xrotation Yrotation
                      JOINT lMid2_End
                      {
                        OFFSET 1.4042 -1.926 1.125
                        CHANNELS 3 Zrotation Xrotation Yrotation
                        End Site
                        {
                          OFFSET 0.014 -0.0193 0.0113
                        }
                      }
                    }
                  }
                }
                JOINT lCarpal2
                {
                  OFFSET 2.0956 0.66 -0.3894
                  CHANNELS 3 Zrotation Xrotation Yrotation
                  JOINT lRing1
                  {
                    OFFSET 5.0395 -0.09 2.4971
                    CHANNELS 3 Zrotation Xrotation Yrotation
                    JOINT lRing2
                    {
                      OFFSET 3.7921 -1.552 1.4806
                      CHANNELS 3 Zrotation Xrotation Yrotation
                      JOINT lRing2_End
                      {
                        OFFSET 1.4655 -1.808 0.9609
                        CHANNELS 3 Zrotation Xrotation Yrotation
                        End Site
                        {
                          OFFSET 0.0147 -0.0181 0.0096
                        }
                      }
                    }
                  }
                  JOINT lPinky1
                  {
                    OFFSET 4.9141 -1.269 0.3591
                    CHANNELS 3 Zrotation Xrotation Yrotation
                    JOINT lPinky2
                    {
                      OFFSET 3.1477 -1.685 0.8462
                      CHANNELS 3 Zrotation Xrotation Yrotation
                      JOINT lPinky2_End
                      {
                        OFFSET 0.8055 -1.585 0.7955
                        CHANNELS 3 Zrotation Xrotation Yrotation
                        End Site
                        {
                          OFFSET 0.0081 -0.0158 0.008
                        }
                      }
                    }
                  }
                }
              }
            }
          }
        }
        JOINT rCollar
        {
          OFFSET -1.7069 20.075 5.0056
          CHANNELS 3 Zrotation Xrotation Yrotation
          JOINT rShldr
          {
            OFFSET -13.6458 -0.047 -4.849
            CHANNELS 3 Zrotation Xrotation Yrotation
            JOINT rForeArm
            {
              OFFSET -28.3255 -0.9759 2.2888
              CHANNELS 3 Zrotation Xrotation Yrotation
              JOINT rHand
              {
                OFFSET -22.1583 -0.53 10.8316
                CHANNELS 3 Zrotation Xrotation Yrotation
                JOINT rThumb1
                {
                  OFFSET -0.786 0.112 2.5817
                  CHANNELS 3 Zrotation Xrotation Yrotation
                  JOINT rThumb2
                  {
                    OFFSET -0.3601 -0.878 4.2331
                    CHANNELS 3 Zrotation Xrotation Yrotation
                    JOINT rThumb2_End
                    {
                      OFFSET -1.8127 -1.216 2.2227
                      CHANNELS 3 Zrotation Xrotation Yrotation
                      End Site
                      {
                        OFFSET -0.0181 -0.0122 0.0222
                      }
                    }
                  }
                }
                JOINT rCarpal1
                {
                  OFFSET -0.9571 1.114 1.7695
                  CHANNELS 3 Zrotation Xrotation Yrotation
                  JOINT rIndex1
                  {
                    OFFSET -4.1246 0.487 4.1451
                    CHANNELS 3 Zrotation Xrotation Yrotation
                    JOINT rIndex2
                    {
                      OFFSET -3.4052 -1.454 2.7682
                      CHANNELS 3 Zrotation Xrotation Yrotation
                      JOINT rIndex2_End
                      {
                        OFFSET -1.4531 -1.795 1.2713
                        CHANNELS 3 Zrotation Xrotation Yrotation
                        End Site
                        {
                          OFFSET -0.0145 -0.018 0.0127
                        }
                      }
                    }
                  }
                  JOINT rMid1
                  {
                    OFFSET -5.6954 0.21 2.1184
                    CHANNELS 3 Zrotation Xrotation Yrotation
                    JOINT rMid2
                    {
                      OFFSET -3.9766 -1.54 2.3863
                      CHANNELS 3 Zrotation Xrotation Yrotation
                      JOINT rMid2_End
                      {
                        OFFSET -1.4042 -1.926 1.125
                        CHANNELS 3 Zrotation Xrotation Yrotation
                        End Site
                        {
                          OFFSET -0.014 -0.0193 0.0113
                        }
                      }
                    }
                  }
                }
                JOINT rCarpal2
                {
                  OFFSET -2.0956 0.66 -0.3894
                  CHANNELS 3 Zrotation Xrotation Yrotation
                  JOINT rRing1
                  {
                    OFFSET -5.0395 -0.09 2.4971
                    CHANNELS 3 Zrotation Xrotation Yrotation
                    JOINT rRing2
                    {
                      OFFSET -3.7921 -1.552 1.4806
                      CHANNELS 3 Zrotation Xrotation Yrotation
                      JOINT rRing2_End
                      {
                        OFFSET -1.4655 -1.808 0.9609
                        CHANNELS 3 Zrotation Xrotation Yrotation
                        End Site
                        {
                          OFFSET -0.0147 -0.0181 0.0096
                        }
                      }
                    }
                  }
                  JOINT rPinky1
                  {
                    OFFSET -4.9141 -1.269 0.3592
                    CHANNELS 3 Zrotation Xrotation Yrotation
                    JOINT rPinky2
                    {
                      OFFSET -3.1477 -1.685 0.8462
                      CHANNELS 3 Zrotation Xrotation Yrotation
                      JOINT rPinky2_End
                      {
                        OFFSET -0.8055 -1.585 0.7955
                        CHANNELS 3 Zrotation Xrotation Yrotation
                        End Site
                        {
                          OFFSET -0.0081 -0.0158 0.008
                        }
                      }
                    }
                  }
                }
              }
            }
          }
        }
      }
    }
  }
  JOINT lThigh
  {
    OFFSET 8.367 -8.2066 0.5982
    CHANNELS 3 Zrotation Xrotation Yrotation
    JOINT lShin
    {
      OFFSET 2.1923 -43.463 -0.4932
      CHANNELS 3 Zrotation Xrotation Yrotation
      JOINT lFoot
      {
        OFFSET 0.7333 -45.8593 -2.6451
        CHANNELS 3 Zrotation Xrotation Yrotation
        End Site
        {
          OFFSET 2.6618 -4.2699 12.3931
        }
      }
    }
  }
  JOINT rThigh
  {
    OFFSET -8.367 -8.2066 0.5982
    CHANNELS 3 Zrotation Xrotation Yrotation
    JOINT rShin
    {
      OFFSET -2.1923 -43.463 -0.4931
      CHANNELS 3 Zrotation Xrotation Yrotation
      JOINT rFoot
      {
        OFFSET -0.7333 -45.8593 -2.6451
        CHANNELS 3 Zrotation Xrotation Yrotation
        End Site
        {
          OFFSET -2.6618 -4.2699 12.3931
        }
      }
    }
  }
}
MOTION
Frames:	4
Frame Time:	0.0333333
0 91.7903 2.51682 0 0 -0 0 0 -0 0 0 -0 0 0 -0 0 0 -0 0 0 -0 0 0 -0 1.66051 0.0835086 5.75766 -0.0175111 0.895433 15.7816 7.95139e-016 -1.98785e-016 -0 5.46658e-016 -3.97569e-016 -0 5.96354e-016 0 -0 3.97569e-016 1.98785e-016 9.54166e-015 1.49089e-016 -3.97569e-016 -0 6.4605e-016 0 3.18055e-015 5.96354e-016 0 3.18055e-015 8.94531e-016 -1.98785e-016 6.36111e-015 6.4605e-016 0 3.18055e-015 5.96354e-016 0 3.18055e-015 8.94531e-016 -1.98785e-016 6.36111e-015 1.49089e-016 -3.97569e-016 -0 6.4605e-016 0 3.18055e-015 5.96354e-016 0 3.18055e-015 8.94531e-016 -1.98785e-016 6.36111e-015 6.4605e-016 0 3.18055e-015 5.96354e-016 0 3.18055e-015 8.94531e-016 -1.98785e-016 6.36111e-015 0 0 -0 -1.4496 0.0636048 -5.0245 -1.74811 1.20616 -16.8394 -1.19271e-015 1.98785e-016 -3.18055e-015 -3.97569e-016 1.98785e-016 -3.18055e-015 -2.98177e-016 1.98785e-016 -3.18055e-015 -2.98177e-016 3.97569e-016 -0 4.96962e-016 0 -6.36111e-015 -9.93923e-017 3.97569e-016 -0 -8.94531e-016 5.96354e-016 -0 -3.97569e-016 3.97569e-016 -0 -9.93923e-017 3.97569e-016 -0 -8.94531e-016 5.96354e-016 -0 -3.97569e-016 3.97569e-016 -0 4.96962e-016 0 -6.36111e-015 -9.93923e-017 3.97569e-016 -0 -8.94531e-016 5.96354e-016 -0 -3.97569e-016 3.97569e-016 -0 -9.93923e-017 3.97569e-016 -0 -8.94531e-016 5.96354e-016 -0 -3.97569e-016 3.97569e-016 -0 -4.66111 -0.998717 0.12318 0.00986924 1.54847 0.176523 4.65186 -0.572283 -0.254274 4.66111 -0.998765 -0.123176 -0.00986867 1.54869 -0.176537 -4.65186 -0.572453 0.25427 
10.949 36.0627 26.5066 -49.9527 -8.55747 97.0937 0.0967741 -3.19615 0.010296 0.194558 -6.39227 0.0260928 0.194566 -6.39226 0.026055 0.000394833 -5.78401 1.00171e-005 -1.99489e-006 12.4405 8.09463e-006 0.737129 -21.4128 7.0401 -29.767 0.444005 -16.4509 28.4879 6.55058 -50.2198 -22.842 -31.2048 9.93917 9.54166e-015 -3.18055e-015 3.18055e-015 1.27222e-014 0 3.18055e-015 -3.18055e-015 -1.59028e-015 6.36111e-015 9.54166e-015 -1.59028e-015 3.18055e-015 9.54166e-015 7.95139e-015 9.54166e-015 1.76556e-031 -3.18055e-015 3.18055e-015 -0 0 3.18055e-015 9.54166e-015 7.95139e-015 9.54166e-015 1.76556e-031 -3.18055e-015 3.18055e-015 -0 0 3.18055e-015 9.54166e-015 -1.59028e-015 3.18055e-015 9.54166e-015 7.95139e-015 9.54166e-015 1.76556e-031 -3.18055e-015 3.18055e-015 -0 0 3.18055e-015 9.54166e-015 7.95139e-015 9.54166e-015 1.76556e-031 -3.18055e-015 3.18055e-015 -0 0 3.18055e-015 -7.28838 -2.21459 -24.0865 31.939 6.40622 20.9001 1.66242 -6.56179 57.8057 -16.1224 -15.4196 -18.0243 6.36111e-015 9.54166e-015 6.36111e-015 6.36111e-015 9.54166e-015 -0 3.18055e-015 3.18055e-015 -6.36111e-015 3.18055e-015 3.18055e-015 9.54166e-015 3.18055e-015 1.59028e-014 1.59028e-014 -3.18055e-015 3.18055e-015 6.36111e-015 6.36111e-015 6.36111e-015 -0 3.18055e-015 1.59028e-014 1.59028e-014 -3.18055e-015 3.18055e-015 6.36111e-015 6.36111e-015 6.36111e-015 -0 3.18055e-015 3.18055e-015 9.54166e-015 3.18055e-015 1.59028e-014 1.59028e-014 -3.18055e-015 3.18055e-015 6.36111e-015 6.36111e-015 6.36111e-015 -0 3.18055e-015 1.59028e-014 1.59028e-014 -3.18055e-015 3.18055e-015 6.36111e-015 6.36111e-015 6.36111e-015 -0 -0.500216 -2.38757 2.14392 1.28857 41.7686 -0.980468 10.2045 28.8606 -0.929735 1.96796 -3.667 -3.08967 -4.722 59.4381 3.44987 -6.99981 16.1044 0.953793 
-0.0471278 -9.02418 42.2399 -90.3963 -89.7304 89.3514 0.16403 -5.665 0.0507337 0.33561 -11.3298 0.118736 0.33561 -11.3298 0.118736 1.02128e-005 -10.0122 2.2951e-006 -2.95011e-008 21.997 9.01243e-008 5.85321 -37.4779 14.7632 -53.8809 0.480732 -33.7211 48.2169 -22.7838 -90.4406 -28.4359 -56.9646 21.5688 2.20695e-031 -3.97569e-015 3.18055e-015 3.97252e-031 -7.15625e-015 3.18055e-015 -1.59028e-015 -1.19271e-014 -0 1.59028e-015 3.18055e-015 -0 -1.59028e-015 1.82882e-014 1.59028e-014 2.64834e-031 -4.77083e-015 3.18055e-015 6.17947e-031 -1.11319e-014 3.18055e-015 -1.59028e-015 1.82882e-014 1.59028e-014 2.64834e-031 -4.77083e-015 3.18055e-015 6.17947e-031 -1.11319e-014 3.18055e-015 1.59028e-015 3.18055e-015 -0 -1.59028e-015 1.82882e-014 1.59028e-014 2.64834e-031 -4.77083e-015 3.18055e-015 6.17947e-031 -1.11319e-014 3.18055e-015 -1.59028e-015 1.82882e-014 1.59028e-014 2.64834e-031 -4.77083e-015 3.18055e-015 6.17947e-031 -1.11319e-014 3.18055e-015 -14.1628 -3.25743 -42.8881 54.1723 8.60135 41.4228 -1.03373 14.1771 112.004 -33.711 -26.7315 -34.7643 7.95139e-015 -1.59028e-015 6.36111e-015 7.15625e-015 -3.57812e-015 3.18055e-015 8.74653e-015 -5.96354e-015 -3.18055e-015 1.59028e-015 3.97569e-015 3.18055e-015 5.1684e-015 -8.34896e-015 1.90833e-014 5.96354e-015 -2.78299e-015 -0 8.74653e-015 -1.19271e-015 -0 5.1684e-015 -8.34896e-015 1.90833e-014 5.96354e-015 -2.78299e-015 -0 8.74653e-015 -1.19271e-015 -0 1.59028e-015 3.97569e-015 3.18055e-015 5.1684e-015 -8.34896e-015 1.90833e-014 5.96354e-015 -2.78299e-015 -0 8.74653e-015 -1.19271e-015 -0 5.1684e-015 -8.34896e-015 1.90833e-014 5.96354e-015 -2.78299e-015 -0 8.74653e-015 -1.19271e-015 -0 2.90205 -4.92852 4.13947 12.6646 74.304 -10.747 15.312 51.5503 -2.23968 -0.201244 -7.69781 -7.23946 -161.825 73.7619 156.617 -9.01379 30.254 1.16606 
-1.55524 -15.0505 46.4082 117.708 -77.688 -63.1071 0.172746 -5.95217 0.0584519 0.354521 -11.9041 0.136168 0.354521 -11.9041 0.13617 -1.97977e-005 -9.57311 -1.2418e-005 -5.50961e-008 22.9016 -1.55005e-006 7.30944 -39.9587 16.3644 -57.3083 0.451708 -36.1827 49.1009 -28.5855 -95.3152 -27.2725 -60.7259 24.6248 3.18055e-015 -9.93923e-016 3.18055e-015 3.57812e-015 -1.39149e-015 -3.18055e-015 3.97569e-016 -2.38542e-015 -0 3.18055e-015 5.96354e-015 3.18055e-015 -1.59028e-015 -7.35503e-015 3.18055e-015 -3.97569e-016 -4.77083e-015 -0 1.59028e-015 7.95139e-016 -0 -1.59028e-015 -7.35503e-015 3.18055e-015 -3.97569e-016 -4.77083e-015 -0 1.59028e-015 7.95139e-016 -0 3.18055e-015 5.96354e-015 3.18055e-015 -1.59028e-015 -7.35503e-015 3.18055e-015 -3.97569e-016 -4.77083e-015 -0 1.59028e-015 7.95139e-016 -0 -1.59028e-015 -7.35503e-015 3.18055e-015 -3.97569e-016 -4.77083e-015 -0 1.59028e-015 7.95139e-016 -0 -15.3544 -3.66037 -45.6592 57.1756 8.60083 44.3509 -3.79273 18.0235 119.672 -36.7728 -28.2219 -37.6072 -3.18055e-015 6.36111e-015 9.54166e-015 -1.76556e-031 3.18055e-015 3.18055e-015 -3.18055e-015 -3.18055e-015 3.18055e-015 -3.18055e-015 4.77083e-015 9.54166e-015 -0 0 6.36111e-015 -3.53113e-031 3.18055e-015 6.36111e-015 -3.18055e-015 4.77083e-015 3.18055e-015 -0 0 6.36111e-015 -3.53113e-031 3.18055e-015 6.36111e-015 -3.18055e-015 4.77083e-015 3.18055e-015 -3.18055e-015 4.77083e-015 9.54166e-015 -0 0 6.36111e-015 -3.53113e-031 3.18055e-015 6.36111e-015 -3.18055e-015 4.77083e-015 3.18055e-015 -0 0 6.36111e-015 -3.53113e-031 3.18055e-015 6.36111e-015 -3.18055e-015 4.77083e-015 3.18055e-015 3.40914 -5.34864 4.47713 19.9688 78.8215 -17.7156 16.1494 54.7423 -2.53789 -0.552142 -8.52375 -8.20658 -166.388 67.4203 160.266 -9.28695 32.5616 1.08857 
